<?xml version="1.0" encoding="utf-8"?>
<!-- Generator: Adobe Illustrator 23.0.1, SVG Export Plug-In . SVG Version: 6.00 Build 0)  -->
<svg version="1.1" id="Layer_1" xmlns="http://www.w3.org/2000/svg" xmlns:xlink="http://www.w3.org/1999/xlink" x="0px" y="0px"
	 viewBox="0 0 275 60" style="enable-background:new 0 0 275 60;" xml:space="preserve">
<style type="text/css">
	.st0{fill:#FFFFFF;}
	.st1{fill:#5AFE64;}
</style>
<g>
	<path class="st0" d="M263.67,31.01h1.92c2.27,0,3.3,1.2,3.3,3.83v1.87c0,2.63-1.03,3.84-3.3,3.84h-1.92V31.01z M258.94,26.64v31.22
		h4.73V44.92h2.1c5.08,0,7.85-2.77,7.85-7.89v-2.5c0-5.13-2.77-7.89-7.85-7.89H258.94z M245.74,31.01h1.92c2.27,0,3.3,1.2,3.3,3.83
		v1.87c0,2.63-1.03,3.84-3.3,3.84h-1.92V31.01z M241.01,26.64v31.22h4.73V44.92h2.1c5.08,0,7.85-2.77,7.85-7.89v-2.5
		c0-5.13-2.76-7.89-7.85-7.89H241.01z M229.28,32.44h0.13l1.92,14.05h-3.97L229.28,32.44z M237.79,57.85l-5.4-31.22h-6.02
		l-5.4,31.22h4.73l1.03-7.09h5.22l1.02,7.09H237.79z"/>
	<path class="st1" d="M214,57.85l8.71-56.42h-8.54l-4.92,38.21h-0.16l-4.84-38.21h-7.58l-4.84,38.21h-0.16l-4.92-38.21h-8.79
		l8.71,56.42h8.71l4.92-33.61h0.16l4.84,33.61H214z M160.12,8.52c3.39,0,5.24,2.26,5.24,6.45v29.34c0,4.19-1.85,6.45-5.24,6.45
		c-3.39,0-5.24-2.26-5.24-6.45V14.97C154.88,10.78,156.73,8.52,160.12,8.52 M160.12,0.63c-8.54,0-13.78,5.4-13.78,14.27v29.5
		c0,8.87,5.24,14.27,13.78,14.27c8.54,0,13.78-5.4,13.78-14.27v-29.5C173.9,6.03,168.66,0.63,160.12,0.63 M139.88,57.85V1.43h-8.06
		v33.61h-0.16L121.58,1.43h-9.51v56.42h8.06v-37.4h0.16l11.2,37.4H139.88z M107.09,9.49V1.43H80.33v8.06h9.11v48.36h8.54V9.49
		H107.09z M75.4,57.85V1.43l-8.54,0v56.42H75.4z M46.58,8.52c3.39,0,5.24,2.26,5.24,6.45v29.34c0,4.19-1.85,6.45-5.24,6.45
		c-3.39,0-5.24-2.26-5.24-6.45V14.97C41.34,10.78,43.2,8.52,46.58,8.52 M46.58,0.63c-8.54,0-13.78,5.4-13.78,14.27v29.5
		c0,8.87,5.24,14.27,13.78,14.27c8.54,0,13.78-5.4,13.78-14.27v-29.5C60.36,6.03,55.13,0.63,46.58,0.63 M9.01,9.33h3.39
		c4.11,0,5.96,2.18,5.96,6.93v26.76c0,4.76-1.85,6.93-5.96,6.93H9.01V9.33z M0.47,1.43v56.42h12.25c9.19,0,14.19-5,14.19-14.27V15.7
		c0-9.27-5-14.27-14.19-14.27H0.47z"/>
</g>
</svg>
