<?xml version="1.0" encoding="utf-8"?>
<!-- Generator: Adobe Illustrator 23.0.1, SVG Export Plug-In . SVG Version: 6.00 Build 0)  -->
<svg version="1.1" id="Layer_1" xmlns="http://www.w3.org/2000/svg" xmlns:xlink="http://www.w3.org/1999/xlink" x="0px" y="0px"
	 viewBox="0 0 66.01 66" style="enable-background:new 0 0 66.01 66;" xml:space="preserve">
<style type="text/css">
	.st0{fill:#5AFE64;}
</style>
<g>
	<path class="st0" d="M51.35,36.44c0,0.84-0.69,1.53-1.53,1.53H38.06v11.76c0,0.84-0.69,1.53-1.53,1.53h-7.15
		c-0.84,0-1.53-0.69-1.53-1.53V37.97H16.08c-0.84,0-1.53-0.69-1.53-1.53v-7.15c0-0.84,0.69-1.53,1.53-1.53h11.76V16
		c0-0.84,0.69-1.53,1.53-1.53h7.15c0.84,0,1.53,0.69,1.53,1.53v11.76h11.75c0.84,0,1.53,0.69,1.53,1.53V36.44z M32.95,1.18
		c-17.5,0-31.69,14.18-31.69,31.69s14.18,31.69,31.69,31.69s31.69-14.18,31.69-31.69S50.45,1.18,32.95,1.18"/>
</g>
</svg>
